<svg width="41" height="43" viewBox="0 0 41 43" fill="none" xmlns="http://www.w3.org/2000/svg">
<path d="M20.25 0L12.6157 5.17207H6.075V9.55519L1.96425 12.3823C0.78975 13.1493 0 14.53 0 16.1299V38.0454C0 39.2079 0.426695 40.3228 1.18622 41.1448C1.94574 41.9667 2.97587 42.4285 4.05 42.4285H36.45C38.6978 42.4285 40.5 40.4781 40.5 38.0454V16.1299C40.5 14.53 39.7103 13.1493 38.5358 12.3823L34.425 9.55519V5.17207H27.8843L20.25 0ZM10.125 9.55519H30.375V20.25L20.25 27.0876L10.125 20.25V9.55519ZM12.15 11.7467V15.0341H28.35V11.7467H12.15ZM6.075 14.7711V17.5105L4.05 16.1299L6.075 14.7711ZM34.425 14.7711L36.45 16.1299L34.425 17.5105V14.7711ZM12.15 17.2256V20.513H28.35V17.2256H12.15Z" fill="white"/>
</svg>
