<svg width="41" height="40" viewBox="0 0 41 40" fill="none" xmlns="http://www.w3.org/2000/svg">
<path d="M20.5 0C16.4455 0 12.482 1.15003 9.11082 3.30466C5.73961 5.45929 3.11207 8.52175 1.56048 12.1048C0.00888228 15.6878 -0.397086 19.6304 0.393911 23.4342C1.18491 27.2379 3.13734 30.7318 6.00432 33.4741C8.87129 36.2164 12.524 38.084 16.5007 38.8406C20.4773 39.5972 24.5991 39.2089 28.345 37.7248C32.0909 36.2406 35.2926 33.7273 37.5451 30.5027C39.7977 27.2781 41 23.4869 41 19.6087C41 14.4081 38.8402 9.42059 34.9957 5.74325C31.1512 2.06591 25.9369 0 20.5 0ZM20.5 7.0031C20.9344 7.0031 21.3591 7.12632 21.7203 7.35717C22.0815 7.58803 22.363 7.91615 22.5292 8.30004C22.6955 8.68394 22.739 9.10636 22.6542 9.5139C22.5695 9.92145 22.3603 10.2958 22.0531 10.5896C21.7459 10.8834 21.3546 11.0835 20.9285 11.1646C20.5024 11.2457 20.0608 11.2041 19.6595 11.045C19.2581 10.886 18.9151 10.6167 18.6737 10.2712C18.4324 9.92575 18.3036 9.51956 18.3036 9.10403C18.3036 8.54683 18.535 8.01245 18.9469 7.61845C19.3588 7.22445 19.9175 7.0031 20.5 7.0031ZM26.3571 30.9887H14.6429V27.8373H18.8527V18.3831H16.1071V15.2317H22.1473V27.8373H26.3571V30.9887Z" fill="white"/>
</svg>
