<svg width="39" height="31" viewBox="0 0 39 31" fill="none" xmlns="http://www.w3.org/2000/svg">
<path d="M38.61 0H0.39C0.1755 0 0 0.156696 0 0.348214V3.13393C0 3.32545 0.1755 3.48214 0.39 3.48214H38.61C38.8245 3.48214 39 3.32545 39 3.13393V0.348214C39 0.156696 38.8245 0 38.61 0ZM38.61 27.1607H0.39C0.1755 27.1607 0 27.3174 0 27.5089V30.2947C0 30.4862 0.1755 30.6429 0.39 30.6429H38.61C38.8245 30.6429 39 30.4862 39 30.2947V27.5089C39 27.3174 38.8245 27.1607 38.61 27.1607ZM38.61 13.5804H0.39C0.1755 13.5804 0 13.7371 0 13.9286V16.7143C0 16.9058 0.1755 17.0625 0.39 17.0625H38.61C38.8245 17.0625 39 16.9058 39 16.7143V13.9286C39 13.7371 38.8245 13.5804 38.61 13.5804Z" fill="white"/>
</svg>
