<svg width="41" height="40" viewBox="0 0 41 40" fill="none" xmlns="http://www.w3.org/2000/svg">
<path d="M20.2827 0C9.1167 0 0.0673828 8.86593 0.0673828 19.8012C0.0673828 28.1894 5.39539 35.3606 12.9169 38.2466C12.7389 36.6807 12.581 34.2705 12.9857 32.5619C13.354 31.0159 15.3573 22.7188 15.3573 22.7188C15.3573 22.7188 14.7523 21.5315 14.7523 19.7774C14.7523 17.0262 16.3813 14.9708 18.4109 14.9708C20.137 14.9708 20.9686 16.2393 20.9686 17.7596C20.9686 19.4603 19.8638 21.9993 19.2952 24.3541C18.8196 26.3243 20.3049 27.9317 22.288 27.9317C25.8798 27.9317 28.644 24.2213 28.644 18.8636C28.644 14.1225 25.1655 10.8084 20.1997 10.8084C14.4467 10.8084 11.0694 15.0342 11.0694 19.4008C11.0694 21.1014 11.7392 22.9269 12.575 23.92C12.646 23.9948 12.6961 24.0862 12.7206 24.1855C12.745 24.2848 12.743 24.3886 12.7146 24.4869C12.5608 25.1112 12.2188 26.4571 12.1541 26.7326C12.065 27.0953 11.8606 27.1726 11.4762 26.9982C8.9528 25.8466 7.37443 22.2312 7.37443 19.3255C7.37443 13.0799 12.0063 7.34368 20.7319 7.34368C27.7455 7.34368 33.1949 12.2375 33.1949 18.7804C33.1949 25.6067 28.8018 31.0952 22.7049 31.0952C20.655 31.0952 18.7306 30.0546 18.0709 28.8237L16.8102 33.5292C16.3549 35.2497 15.1226 37.4062 14.299 38.7223C16.2378 39.3086 18.2556 39.6059 20.2847 39.6043C31.4486 39.6043 40.5 30.7384 40.5 19.8032C40.5 8.86791 31.4466 0 20.2827 0Z" fill="white"/>
</svg>
