<svg width="41" height="40" viewBox="0 0 41 40" fill="none" xmlns="http://www.w3.org/2000/svg">
<path d="M20.4173 13.1986C16.7051 13.1986 13.6757 16.166 13.6757 19.8022C13.6757 23.4383 16.7051 26.4057 20.4173 26.4057C24.1295 26.4057 27.1589 23.4383 27.1589 19.8022C27.1589 16.166 24.1295 13.1986 20.4173 13.1986ZM40.6371 19.8022C40.6371 17.0676 40.6624 14.3578 40.5056 11.6283C40.3489 8.45776 39.6105 5.64395 37.2436 3.32553C34.8716 1.00216 32.004 0.283845 28.7672 0.130275C25.9755 -0.023296 23.209 0.00147351 20.4223 0.00147351C17.6306 0.00147351 14.8642 -0.023296 12.0775 0.130275C8.8407 0.283845 5.96804 1.00711 3.60114 3.32553C1.22917 5.64891 0.495836 8.45776 0.339054 11.6283C0.182271 14.3628 0.207559 17.0726 0.207559 19.8022C0.207559 22.5318 0.182271 25.2465 0.339054 27.9761C0.495836 31.1466 1.23423 33.9604 3.60114 36.2788C5.9731 38.6022 8.8407 39.3205 12.0775 39.4741C14.8692 39.6276 17.6357 39.6029 20.4223 39.6029C23.2141 39.6029 25.9805 39.6276 28.7672 39.4741C32.004 39.3205 34.8767 38.5972 37.2436 36.2788C39.6155 33.9554 40.3489 31.1466 40.5056 27.9761C40.6675 25.2465 40.6371 22.5367 40.6371 19.8022ZM20.4173 29.9626C14.677 29.9626 10.0444 25.4248 10.0444 19.8022C10.0444 14.1795 14.677 9.64174 20.4173 9.64174C26.1575 9.64174 30.7902 14.1795 30.7902 19.8022C30.7902 25.4248 26.1575 29.9626 20.4173 29.9626ZM31.215 11.5985C29.8748 11.5985 28.7925 10.5384 28.7925 9.22561C28.7925 7.91283 29.8748 6.8527 31.215 6.8527C32.5553 6.8527 33.6376 7.91283 33.6376 9.22561C33.638 9.53734 33.5756 9.84608 33.454 10.1342C33.3324 10.4222 33.1539 10.684 32.9289 10.9044C32.7039 11.1248 32.4367 11.2996 32.1426 11.4187C31.8485 11.5378 31.5333 11.5989 31.215 11.5985Z" fill="white"/>
</svg>
