<svg width="41" height="40" viewBox="0 0 41 40" fill="none" xmlns="http://www.w3.org/2000/svg">
<path d="M7.79906 0C3.47826 0 0 3.40728 0 7.63991V31.9644C0 36.1971 3.47826 39.6043 7.79906 39.6043H32.6303C36.9511 39.6043 40.4293 36.1971 40.4293 31.9644V7.63991C40.4293 3.40728 36.9511 0 32.6303 0H7.79906ZM28.6897 7.80083C28.8127 7.80023 28.9368 7.80182 29.0624 7.80578C32.0444 7.89045 33.4488 9.77364 33.2759 13.4568C33.1462 16.2087 31.1802 19.9775 27.377 24.7614C23.4442 29.757 20.1162 32.2541 17.3935 32.2541C15.708 32.2541 14.2811 30.7304 13.1143 27.6822L10.7807 19.2997C9.91639 16.2516 8.98764 14.7279 7.99361 14.7279C7.77751 14.7279 7.02104 15.1718 5.72451 16.0608L4.36253 14.3467C5.78871 13.119 7.19432 11.8912 8.57729 10.6635C10.4788 9.05474 11.9044 8.20732 12.8552 8.12265C15.1025 7.91097 16.4857 9.41383 17.0043 12.6314C17.5661 16.1029 17.9556 18.2624 18.1717 19.1092C18.8199 21.988 19.5327 23.4273 20.3106 23.4273C20.9157 23.4273 21.8232 22.4955 23.0333 20.6327C24.2434 18.7699 24.8913 17.3526 24.9777 16.3789C25.1506 14.7702 24.5027 13.9655 23.0333 13.9655C22.3419 13.9655 21.629 14.1135 20.8944 14.4098C22.276 10.0215 24.8745 7.81881 28.6897 7.80087V7.80083Z" fill="white"/>
</svg>
