<svg width="25" height="24" viewBox="0 0 25 24" fill="none" xmlns="http://www.w3.org/2000/svg">
<path d="M12.2503 0C5.48383 0 0 5.3727 0 11.9994C0 17.0826 3.22874 21.4284 7.78674 23.1772C7.67883 22.2283 7.58318 20.7677 7.82844 19.7323C8.05161 18.7955 9.26561 13.7675 9.26561 13.7675C9.26561 13.7675 8.89896 13.048 8.89896 11.985C8.89896 10.3178 9.8861 9.07222 11.116 9.07222C12.162 9.07222 12.666 9.84095 12.666 10.7622C12.666 11.7928 11.9965 13.3315 11.6519 14.7584C11.3637 15.9523 12.2638 16.9265 13.4655 16.9265C15.6422 16.9265 17.3172 14.6779 17.3172 11.4313C17.3172 8.55813 15.2093 6.54982 12.2 6.54982C8.7138 6.54982 6.66717 9.11065 6.66717 11.7568C6.66717 12.7873 7.07306 13.8936 7.5795 14.4954C7.62254 14.5407 7.65293 14.5961 7.66775 14.6563C7.68257 14.7164 7.68132 14.7793 7.66412 14.8389C7.57092 15.2173 7.36368 16.0328 7.32444 16.1998C7.27049 16.4196 7.14664 16.4664 6.91365 16.3607C5.3845 15.6629 4.42802 13.472 4.42802 11.7111C4.42802 7.92633 7.23493 4.45023 12.5226 4.45023C16.7728 4.45023 20.0751 7.41584 20.0751 11.3808C20.0751 15.5175 17.4129 18.8435 13.7182 18.8435C12.476 18.8435 11.3098 18.2129 10.91 17.467L10.1461 20.3185C9.87016 21.3611 9.12337 22.6679 8.62428 23.4655C9.79917 23.8208 11.0219 24.001 12.2516 24C19.0168 24 24.5019 18.6273 24.5019 12.0006C24.5019 5.3739 19.0156 0 12.2503 0Z" fill="#005570"/>
</svg>
