<svg width="25" height="24" viewBox="0 0 25 24" fill="none" xmlns="http://www.w3.org/2000/svg">
<path d="M12.2479 7.9983C9.99831 7.9983 8.16249 9.79651 8.16249 12C8.16249 14.2035 9.99831 16.0017 12.2479 16.0017C14.4974 16.0017 16.3333 14.2035 16.3333 12C16.3333 9.79651 14.4974 7.9983 12.2479 7.9983ZM24.501 12C24.501 10.3429 24.5163 8.70077 24.4213 7.04665C24.3263 5.12536 23.8788 3.4202 22.4445 2.01525C21.0071 0.607302 19.2693 0.172008 17.3079 0.0789456C15.6161 -0.0141173 13.9396 0.000892936 12.2509 0.000892936C10.5592 0.000892936 8.88272 -0.0141173 7.19401 0.0789456C5.23253 0.172008 3.49172 0.610305 2.0574 2.01525C0.620002 3.42321 0.175605 5.12536 0.0805965 7.04665C-0.0144125 8.70377 0.000911608 10.3459 0.000911608 12C0.000911608 13.6541 -0.0144125 15.2992 0.0805965 16.9533C0.175605 18.8746 0.623067 20.5798 2.0574 21.9847C3.49479 23.3927 5.23253 23.828 7.19401 23.9211C8.88578 24.0141 10.5622 23.9991 12.2509 23.9991C13.9427 23.9991 15.6192 24.0141 17.3079 23.9211C19.2693 23.828 21.0102 23.3897 22.4445 21.9847C23.8819 20.5768 24.3263 18.8746 24.4213 16.9533C24.5194 15.2992 24.501 13.6571 24.501 12ZM12.2479 18.1572C8.76932 18.1572 5.96196 15.4073 5.96196 12C5.96196 8.5927 8.76932 5.84284 12.2479 5.84284C15.7264 5.84284 18.5338 8.5927 18.5338 12C18.5338 15.4073 15.7264 18.1572 12.2479 18.1572ZM18.7912 7.02864C17.9791 7.02864 17.3232 6.38621 17.3232 5.59067C17.3232 4.79513 17.9791 4.1527 18.7912 4.1527C19.6034 4.1527 20.2593 4.79513 20.2593 5.59067C20.2595 5.77957 20.2217 5.96667 20.148 6.14124C20.0743 6.31581 19.9662 6.47442 19.8298 6.608C19.6935 6.74157 19.5315 6.84748 19.3533 6.91967C19.1751 6.99185 18.9841 7.02888 18.7912 7.02864Z" fill="#005570"/>
</svg>
