<svg width="25" height="24" viewBox="0 0 25 24" fill="none" xmlns="http://www.w3.org/2000/svg">
<path d="M4.7262 0C2.10781 0 0 2.06479 0 4.62974V19.3703C0 21.9352 2.10781 24 4.7262 24H19.7738C22.3922 24 24.5 21.9352 24.5 19.3703V4.62974C24.5 2.06479 22.3922 0 19.7738 0H4.7262ZM17.3858 4.72726C17.4604 4.7269 17.5356 4.72786 17.6117 4.73026C19.4188 4.78157 20.2698 5.92277 20.165 8.15477C20.0865 9.82236 18.895 12.1062 16.5903 15.0053C14.2071 18.0326 12.1903 19.5458 10.5404 19.5458C9.51896 19.5458 8.65431 18.6225 7.94719 16.7753L6.53307 11.6955C6.00929 9.84835 5.44647 8.92502 4.84409 8.92502C4.71314 8.92502 4.25472 9.19402 3.46903 9.73277L2.64367 8.69402C3.50793 7.95002 4.35973 7.20602 5.1978 6.46202C6.35013 5.48712 7.21402 4.97359 7.79022 4.92228C9.15207 4.794 9.99024 5.70473 10.3045 7.65454C10.645 9.75826 10.881 11.0669 11.012 11.58C11.4048 13.3246 11.8368 14.1968 12.3082 14.1968C12.6748 14.1968 13.2248 13.6321 13.9581 12.5033C14.6914 11.3745 15.084 10.5156 15.1364 9.92554C15.2412 8.95063 14.8485 8.46302 13.9581 8.46302C13.5391 8.46302 13.1071 8.55269 12.6619 8.73228C13.4991 6.07296 15.0738 4.73813 17.3858 4.72726Z" fill="#005570"/>
</svg>
